<svg width="256" height="256" viewBox="0 0 256 256" fill="none" xmlns="http://www.w3.org/2000/svg">
<g clip-path="url(#clip0_3_8)">
<path d="M128 0C57.4592 0 0 57.4592 0 128C0 198.541 57.4592 256 128 256C198.541 256 256 198.541 256 128C256 57.4592 198.541 0 128 0ZM128 25.6C184.706 25.6 230.4 71.2944 230.4 128C230.4 179.385 192.836 221.607 143.6 229.1V158.525H173.4L178.075 128.25H143.6V111.7C143.6 99.1176 147.699 87.95 159.475 87.95H178.375V61.525C175.047 61.077 168.024 60.1 154.75 60.1C127.025 60.1 110.775 74.7432 110.775 108.1V128.25H82.275V158.525H110.775V228.85C62.3397 220.683 25.6 178.819 25.6 128C25.6 71.2944 71.2944 25.6 128 25.6Z" fill="#DEC25F"/>
</g>
<defs>
<clipPath id="clip0_3_8">
<rect width="256" height="256" fill="white"/>
</clipPath>
</defs>
</svg>
