<svg width="256" height="256" viewBox="0 0 256 256" fill="none" xmlns="http://www.w3.org/2000/svg">
<path d="M73.5 6C36.2805 6 6 36.2805 6 73.5V181.5C6 218.719 36.2805 249 73.5 249H181.5C218.719 249 249 218.719 249 181.5V73.5C249 36.2805 218.719 6 181.5 6H73.5ZM73.5 33H181.5C203.829 33 222 51.171 222 73.5V181.5C222 203.829 203.829 222 181.5 222H73.5C51.171 222 33 203.829 33 181.5V73.5C33 51.171 51.171 33 73.5 33ZM195 46.5C191.42 46.5 187.986 47.9223 185.454 50.4541C182.922 52.9858 181.5 56.4196 181.5 60C181.5 63.5804 182.922 67.0142 185.454 69.5459C187.986 72.0777 191.42 73.5 195 73.5C198.58 73.5 202.014 72.0777 204.546 69.5459C207.078 67.0142 208.5 63.5804 208.5 60C208.5 56.4196 207.078 52.9858 204.546 50.4541C202.014 47.9223 198.58 46.5 195 46.5ZM127.5 60C90.2805 60 60 90.2805 60 127.5C60 164.719 90.2805 195 127.5 195C164.719 195 195 164.719 195 127.5C195 90.2805 164.719 60 127.5 60ZM127.5 87C149.829 87 168 105.171 168 127.5C168 149.829 149.829 168 127.5 168C105.171 168 87 149.829 87 127.5C87 105.171 105.171 87 127.5 87Z" fill="#DEC25F"/>
</svg>
