<svg width="256" height="256" viewBox="0 0 256 256" fill="none" xmlns="http://www.w3.org/2000/svg">
<path d="M256 48.5022C246.578 52.6659 236.456 55.4678 225.833 56.7316C236.683 50.2657 245.002 40.0278 248.921 27.8208C238.78 33.8068 227.536 38.1566 215.563 40.5079C205.983 30.3484 192.337 24 177.234 24C148.228 24 124.716 47.4049 124.716 76.257C124.716 80.3521 125.189 84.3493 126.075 88.1603C82.4288 85.9854 43.7349 65.1766 17.8209 33.552C13.3115 41.272 10.7221 50.2461 10.7221 59.8373C10.7221 77.9617 19.9869 93.9601 34.0762 103.326C25.471 103.052 17.3679 100.7 10.2888 96.7914C10.2888 97.0168 10.2888 97.2225 10.2888 97.4478C10.2888 122.773 28.3854 143.895 52.4189 148.686C48.0178 149.881 43.3706 150.518 38.5757 150.518C35.1986 150.518 31.9003 150.185 28.7004 149.587C35.3857 170.347 54.7819 185.464 77.7619 185.885C59.7934 199.904 37.1481 208.261 12.5337 208.261C8.29999 208.261 4.11553 208.016 0 207.526C23.2459 222.349 50.8436 231 80.5089 231C177.116 231 229.928 151.37 229.928 82.3115C229.928 80.0484 229.879 77.7951 229.781 75.5516C240.05 68.1745 248.96 58.9751 256 48.5022Z" fill="#DEC25F"/>
</svg>
