<svg width="256" height="256" viewBox="0 0 256 256" fill="none" xmlns="http://www.w3.org/2000/svg">
<g clip-path="url(#clip0_3_5)">
<path d="M128.125 21.3333C69.3944 21.3333 21.5839 69.1027 21.5625 127.833C21.5519 146.607 26.469 164.934 35.7917 181.083L21.3334 234.667L77.1459 221.479C92.7085 229.97 110.228 234.427 128.063 234.437H128.104C186.824 234.437 234.614 186.657 234.646 127.937C234.667 99.4682 223.597 72.7012 203.479 52.5625C183.362 32.4345 156.626 21.344 128.125 21.3333ZM128.104 42.6667C150.888 42.6773 172.3 51.5605 188.396 67.6458C204.492 83.7525 213.334 105.154 213.313 127.917C213.291 174.893 175.081 213.104 128.083 213.104C113.865 213.093 99.7804 209.523 87.375 202.75L80.1875 198.833L72.25 200.708L51.25 205.667L56.375 186.625L58.6875 178.083L54.2709 170.417C46.8255 157.531 42.8852 142.799 42.8959 127.833C42.9172 80.8787 81.1389 42.6667 128.104 42.6667ZM90.4167 78.6667C88.6354 78.6667 85.7552 79.3333 83.3125 82C80.8699 84.656 73.9792 91.0888 73.9792 104.187C73.9792 117.286 83.5209 129.948 84.8542 131.729C86.1769 133.5 103.272 161.229 130.333 171.896C152.819 180.76 157.386 179.01 162.271 178.562C167.156 178.125 178.031 172.135 180.25 165.917C182.469 159.698 182.474 154.349 181.813 153.25C181.151 152.141 179.375 151.479 176.708 150.146C174.052 148.812 160.964 142.385 158.521 141.5C156.078 140.615 154.292 140.167 152.521 142.833C150.75 145.5 145.662 151.479 144.104 153.25C142.547 155.031 141 155.271 138.333 153.937C135.667 152.593 127.093 149.775 116.917 140.708C109.002 133.658 103.662 124.958 102.104 122.292C100.558 119.636 101.958 118.177 103.292 116.854C104.486 115.659 105.938 113.745 107.271 112.187C108.594 110.63 109.052 109.521 109.938 107.75C110.823 105.979 110.37 104.417 109.708 103.083C109.047 101.75 103.868 88.6027 101.5 83.3333C99.5054 78.9067 97.3987 78.8038 95.5 78.7292C93.9534 78.6652 92.1874 78.6667 90.4167 78.6667Z" fill="#DEC25F"/>
</g>
<defs>
<clipPath id="clip0_3_5">
<rect width="256" height="256" fill="white"/>
</clipPath>
</defs>
</svg>
