<svg width="512" height="512" viewBox="0 0 512 512" fill="none" xmlns="http://www.w3.org/2000/svg">
<g clip-path="url(#clip0_2_138)">
<path d="M367.486 445.892L363.379 439.986C361.633 437.475 360.579 434.919 360.219 432.318C359.87 429.732 360.227 427.287 361.292 424.983C362.353 422.704 364.061 420.746 366.417 419.107C368.804 417.447 371.244 416.475 373.736 416.19C376.224 415.932 378.59 416.357 380.832 417.465C383.075 418.573 385.02 420.313 386.67 422.684L393.607 432.659C395.353 435.17 396.401 437.718 396.75 440.304C397.1 442.889 396.744 445.321 395.684 447.599C394.619 449.904 392.908 451.875 390.552 453.514C388.615 454.861 386.541 455.683 384.332 455.977C382.117 456.299 379.932 456.082 377.775 455.329C375.618 454.575 373.65 453.333 371.872 451.603L377.01 448.03C378.076 448.967 379.223 449.607 380.45 449.95C381.688 450.308 382.902 450.383 384.092 450.176C385.293 449.985 386.374 449.555 387.335 448.887C388.73 447.917 389.722 446.732 390.313 445.333C390.903 443.933 391.065 442.429 390.798 440.821C390.541 439.229 389.858 437.635 388.747 436.038L381.81 426.064C380.797 424.607 379.613 423.533 378.259 422.842C376.915 422.166 375.499 421.898 374.009 422.038C372.503 422.188 371.045 422.753 369.635 423.734C368.24 424.704 367.231 425.866 366.608 427.219C365.996 428.588 365.818 430.068 366.075 431.66C366.331 433.253 367.031 434.871 368.174 436.514L369.192 437.978L376.051 433.208L379.204 437.742L367.486 445.892Z" fill="#3C3C3F"/>
<path d="M329.659 438.604C332.308 437.499 334.882 437.099 337.383 437.405C339.892 437.728 342.144 438.711 344.139 440.354C346.124 442.021 347.698 444.249 348.862 447.036L353.358 457.804C354.522 460.591 354.995 463.268 354.778 465.835C354.55 468.426 353.666 470.718 352.125 472.712C350.591 474.723 348.5 476.281 345.852 477.387C343.204 478.493 340.625 478.884 338.117 478.56C335.616 478.254 333.373 477.268 331.388 475.6C329.393 473.958 327.813 471.743 326.649 468.955L322.154 458.188C320.99 455.4 320.521 452.711 320.749 450.12C320.966 447.553 321.842 445.265 323.376 443.254C324.917 441.26 327.011 439.71 329.659 438.604ZM331.853 443.857C330.285 444.512 329.054 445.435 328.16 446.627C327.256 447.843 326.751 449.23 326.644 450.789C326.528 452.372 326.826 454.017 327.539 455.724L332.187 466.858C332.9 468.565 333.857 469.925 335.057 470.938C336.247 471.975 337.589 472.592 339.082 472.787C340.565 473.006 342.091 472.789 343.659 472.134C345.227 471.479 346.463 470.544 347.367 469.328C348.26 468.136 348.766 466.749 348.882 465.166C348.988 463.607 348.685 461.974 347.972 460.267L343.324 449.134C342.611 447.427 341.66 446.054 340.469 445.017C339.269 444.004 337.927 443.387 336.444 443.168C334.951 442.973 333.421 443.203 331.853 443.857Z" fill="#3C3C3F"/>
<path d="M310.633 488.298L304.959 489.387L297.198 448.947L302.872 447.858L310.633 488.298ZM301.071 453.798L277.93 458.239L276.895 452.843L300.035 448.403L301.071 453.798Z" fill="#3C3C3F"/>
<path d="M259.953 458.789L250.637 458.637C247.597 458.588 245.234 459.333 243.548 460.873C241.842 462.431 240.965 464.645 240.918 467.514L240.721 479.634C240.674 482.503 241.478 484.735 243.132 486.329C244.768 487.942 247.105 488.773 250.144 488.823L259.461 488.975L259.371 494.468L250.225 494.319C246.921 494.265 244.108 493.643 241.786 492.453C239.464 491.264 237.708 489.555 236.517 487.326C235.326 485.097 234.756 482.425 234.806 479.311L234.997 467.644C235.047 464.529 235.704 461.878 236.967 459.689C238.231 457.5 240.051 455.849 242.43 454.736C244.789 453.623 247.621 453.093 250.925 453.147L260.043 453.296L259.953 458.789ZM263.279 494.532L257.502 494.438L258.174 453.265L263.95 453.36L263.279 494.532Z" fill="#3C3C3F"/>
<path d="M187.86 440.559C190.565 441.518 192.741 442.951 194.389 444.857C196.03 446.781 197.038 449.022 197.414 451.579C197.765 454.148 197.436 456.855 196.426 459.702L192.526 470.699C191.517 473.547 190.07 475.848 188.185 477.603C186.276 479.371 184.082 480.475 181.601 480.918C179.114 481.378 176.518 481.129 173.813 480.169C171.109 479.21 168.936 477.769 167.294 475.844C165.647 473.938 164.647 471.7 164.296 469.132C163.921 466.575 164.238 463.873 165.247 461.026L169.147 450.029C170.157 447.182 171.616 444.875 173.525 443.108C175.409 441.352 177.595 440.244 180.082 439.784C182.562 439.341 185.155 439.6 187.86 440.559ZM185.957 445.924C184.356 445.356 182.824 445.213 181.362 445.496C179.875 445.79 178.569 446.479 177.444 447.562C176.294 448.657 175.41 450.076 174.792 451.82L170.76 463.191C170.141 464.935 169.937 466.585 170.146 468.142C170.331 469.71 170.911 471.067 171.887 472.214C172.838 473.373 174.114 474.236 175.716 474.804C177.317 475.372 178.861 475.509 180.348 475.215C181.81 474.932 183.116 474.244 184.266 473.149C185.391 472.065 186.263 470.652 186.881 468.908L190.914 457.537C191.532 455.793 191.749 454.138 191.564 452.569C191.354 451.013 190.774 449.655 189.823 448.497C188.847 447.349 187.559 446.492 185.957 445.924Z" fill="#3C3C3F"/>
<path d="M140.06 464.559L135.619 461.78L135.436 424.114L136.403 423.85L119.126 451.458L114.277 448.424L136.106 413.542L140.595 416.351L140.985 453.578L140.018 453.842L157.04 426.642L161.889 429.677L140.06 464.559Z" fill="#3C3C3F"/>
<path d="M96.7851 433.553L92.6428 429.526L121.347 400.002L125.49 404.03L96.7851 433.553ZM119.65 406.014L102.695 389.53L106.525 385.591L123.479 402.075L119.65 406.014ZM107.311 418.705L92.5896 404.392L96.4196 400.453L111.141 414.766L107.311 418.705ZM94.7748 431.599L77.82 415.114L81.6499 411.175L98.6048 427.66L94.7748 431.599Z" fill="#3C3C3F"/>
<path d="M64.8113 365.236L58.3094 352.784C57.8025 351.813 57.1181 351.074 56.2563 350.565C55.3944 350.057 54.4318 349.825 53.3686 349.869C52.2798 349.905 51.1748 350.216 50.0535 350.801C48.9322 351.387 48.054 352.112 47.4189 352.976C46.7584 353.832 46.3905 354.759 46.3151 355.756C46.231 356.738 46.4468 357.722 46.9624 358.709L53.4643 371.161L48.5942 373.704L42.1971 361.453C41.096 359.344 40.5655 357.268 40.6055 355.224C40.6368 353.162 41.2286 351.277 42.3808 349.568C43.5075 347.851 45.1169 346.446 47.2089 345.354C49.3009 344.261 51.3818 343.739 53.4516 343.787C55.5047 343.844 57.3858 344.448 59.0951 345.601C60.7955 346.736 62.192 348.35 63.2844 350.442L69.6814 362.693L64.8113 365.236ZM49.7608 375.938L47.0867 370.817L83.6128 351.744L86.2869 356.865L49.7608 375.938ZM63.3607 353.341L59.5449 348.848L72.3917 330.255L75.564 336.33L63.3607 353.341Z" fill="#3C3C3F"/>
<path d="M29.2182 329.891L27.6476 324.331L67.2746 313.137L68.8451 318.697L29.2182 329.891ZM62.7957 317.492L56.3671 294.735L61.6543 293.242L68.083 315.998L62.7957 317.492ZM45.7621 322.304L40.1804 302.545L45.4676 301.051L51.0494 320.81L45.7621 322.304ZM28.456 327.193L22.0274 304.436L27.3146 302.942L33.7432 325.699L28.456 327.193Z" fill="#3C3C3F"/>
<path d="M19.0284 283.391L18.5918 277.63L59.6518 274.518L60.0884 280.279L19.0284 283.391ZM37.1135 279.18L35.6047 259.272L41.0831 258.856L42.5919 278.765L37.1135 279.18ZM18.8144 280.567L17.0702 257.552L22.5486 257.137L24.2928 280.152L18.8144 280.567Z" fill="#3C3C3F"/>
<path d="M59.9 234.529L59.4004 240.285L18.3769 236.724L18.8766 230.968L59.9 234.529Z" fill="#3C3C3F"/>
<path d="M22.5472 206.001L23.9008 200.939L59.8542 189.711L60.3899 190.558L28.9272 182.144L30.4051 176.617L70.1576 187.248L68.7894 192.364L33.3157 203.662L32.78 202.816L63.7776 211.105L62.2997 216.632L22.5472 206.001Z" fill="#3C3C3F"/>
<path d="M39.4872 155.532L42.1215 150.39L78.7695 169.166L76.1351 174.308L39.4872 155.532ZM72.5238 169.308L83.3064 148.262L88.1962 150.767L77.4136 171.813L72.5238 169.308ZM56.7708 161.237L66.1329 142.963L71.0227 145.468L61.6605 163.742L56.7708 161.237ZM40.7657 153.037L51.5483 131.991L56.438 134.496L45.6554 155.542L40.7657 153.037Z" fill="#3C3C3F"/>
<path d="M79.5172 123.891L88.343 112.963C89.031 112.111 89.4363 111.189 89.5588 110.196C89.6814 109.203 89.5105 108.227 89.0461 107.27C88.5789 106.286 87.8532 105.396 86.8691 104.601C85.885 103.807 84.8701 103.29 83.8245 103.053C82.776 102.788 81.7792 102.82 80.8341 103.149C79.9009 103.463 79.0843 104.054 78.3844 104.92L69.5586 115.848L65.2844 112.396L73.9679 101.645C75.4626 99.7939 77.1553 98.4793 79.046 97.7008C80.9486 96.9076 82.9134 96.6985 84.9403 97.0735C86.9644 97.422 88.8944 98.3377 90.7304 99.8205C92.5664 101.303 93.8751 103.003 94.6564 104.921C95.4231 106.826 95.6189 108.792 95.2438 110.819C94.8807 112.831 93.9577 114.756 92.4748 116.592L83.7914 127.343L79.5172 123.891ZM63.7007 114.357L67.3307 109.863L99.3874 135.753L95.7575 140.247L63.7007 114.357ZM89.8464 117.818L92.4451 112.527L114.619 116.893L110.313 122.225L89.8464 117.818Z" fill="#3C3C3F"/>
<path d="M122.776 88.2237L133.452 101.114L129.003 104.799L118.326 91.909L93.0743 81.0892L98.0253 76.9885L116.812 85.5516L111.897 65.4992L116.848 61.3985L122.776 88.2237Z" fill="#3C3C3F"/>
<path d="M167.681 55.4331L179.912 50.5516C181.069 50.0897 181.978 49.4119 182.638 48.5184C183.298 47.6249 183.665 46.5839 183.739 45.3954C183.831 44.2 183.618 42.9534 183.101 41.6558C182.576 40.3407 181.868 39.2814 180.978 38.4778C180.106 37.6673 179.123 37.1652 178.029 36.9715C176.928 36.7603 175.799 36.8857 174.642 37.3476L162.411 42.2291L160.375 37.1264L172.421 32.3184C174.701 31.4085 176.905 31.0982 179.033 31.3873C181.154 31.6589 183.041 32.4912 184.695 33.8843C186.366 35.2705 187.667 37.1296 188.598 39.4618C189.529 41.794 189.865 44.038 189.608 46.194C189.361 48.3254 188.562 50.2198 187.211 51.8771C185.859 53.5344 184.044 54.818 181.765 55.7278L169.718 60.5358L167.681 55.4331ZM157.613 38.2287L162.979 36.0871L178.243 74.3313L172.877 76.4729L157.613 38.2287Z" fill="#3C3C3F"/>
<path d="M211.165 39.9318L225.015 37.5886C226.095 37.406 227.009 36.9832 227.759 36.3202C228.509 35.6572 229.026 34.8133 229.313 33.7883C229.614 32.7415 229.659 31.5945 229.448 30.3473C229.237 29.1 228.819 28.0411 228.193 27.1704C227.582 26.278 226.814 25.642 225.888 25.2625C224.981 24.8798 223.978 24.7814 222.88 24.9672L209.03 27.3104L208.113 21.8932L221.74 19.5878C224.086 19.191 226.225 19.327 228.157 19.9958C230.108 20.6615 231.718 21.806 232.989 23.4294C234.274 25.0309 235.114 26.9952 235.508 29.3222C235.902 31.6491 235.756 33.7896 235.072 35.7436C234.384 37.679 233.229 39.2819 231.606 40.5523C230.001 41.8195 228.035 42.6499 225.708 43.0436L212.082 45.349L211.165 39.9318ZM205.628 22.3136L211.325 21.3499L218.198 61.9787L212.502 62.9424L205.628 22.3136ZM222.927 42.2217L228.378 39.9782L242.101 57.9348L235.343 59.0781L222.927 42.2217Z" fill="#3C3C3F"/>
<path d="M260.591 58.3543L254.814 58.3492L254.85 17.1715L260.628 17.1766L260.591 58.3543Z" fill="#3C3C3F"/>
<path d="M281.303 18.09L287.507 19.111L292.016 52.5727L307.012 22.3212L313.215 23.3423L293.283 61.7934L287.861 60.9011L281.303 18.09Z" fill="#3C3C3F"/>
<path d="M342.547 33.3341L347.143 35.1116L346.447 78.9927L340.636 76.7453L341.974 41.6451L319.347 68.5115L313.536 66.2641L342.547 33.3341ZM325.3 55.2371L345.507 63.052L343.525 68.1763L323.318 60.3613L325.3 55.2371Z" fill="#3C3C3F"/>
<path d="M380.861 56.272L385.749 59.353L365.587 91.3359L360.699 88.255L380.861 56.272ZM372.812 47.2139L397.392 62.7092L394.462 67.3569L369.882 51.8617L372.812 47.2139Z" fill="#3C3C3F"/>
<path d="M411.779 74.5923L416.007 78.5289L387.949 108.668L383.72 104.731L411.779 74.5923ZM389.516 102.62L406.824 118.733L403.08 122.755L385.772 106.641L389.516 102.62ZM401.577 89.6651L416.605 103.656L412.861 107.677L397.833 93.6863L401.577 89.6651ZM413.831 76.5027L431.139 92.616L427.395 96.6372L410.087 80.524L413.831 76.5027Z" fill="#3C3C3F"/>
<path d="M459.886 131.087L462.702 136.132L426.747 156.203L423.931 151.158L459.886 131.087ZM430.136 151.002L441.621 171.576L436.824 174.254L425.339 153.68L430.136 151.002Z" fill="#3C3C3F"/>
<path d="M443.319 192.597L441.354 187.164L480.079 173.164L482.043 178.597L443.319 192.597Z" fill="#3C3C3F"/>
<path d="M494.124 232.287L494.984 237.627L454.33 244.175L453.434 238.611L483.883 233.707L482.138 234.275L457.515 227.972L456.875 224.001L477.715 210.375L480.108 210.276L449.66 215.181L448.764 209.617L489.418 203.069L490.278 208.409L465.359 224.671L494.124 232.287Z" fill="#3C3C3F"/>
<path d="M453.465 265.395L453.624 259.619L494.786 260.751L494.627 266.526L453.465 265.395Z" fill="#3C3C3F"/>
<path d="M487.946 296.312L486.927 301.999L449.712 295.333L450.731 289.646L487.946 296.312ZM493.315 285.449L488.192 314.05L482.784 313.082L487.907 284.48L493.315 285.449Z" fill="#3C3C3F"/>
<path d="M482.586 331.848L480.527 337.246L442.053 322.569L444.113 317.171L482.586 331.848ZM448.247 321.749L439.818 343.843L434.685 341.885L443.113 319.79L448.247 321.749ZM464.784 328.058L457.466 347.241L452.333 345.283L459.651 326.099L464.784 328.058ZM481.587 334.467L473.158 356.562L468.025 354.603L476.453 332.509L481.587 334.467Z" fill="#3C3C3F"/>
<path d="M430.827 359.42L425.796 367.263C424.155 369.822 423.546 372.223 423.968 374.468C424.395 376.738 425.817 378.648 428.232 380.198L438.435 386.742C440.85 388.292 443.171 388.783 445.397 388.214C447.629 387.672 449.566 386.122 451.207 383.563L456.238 375.721L460.862 378.687L455.923 386.387C454.139 389.168 452.131 391.233 449.897 392.581C447.664 393.93 445.286 394.525 442.764 394.365C440.242 394.205 437.67 393.284 435.048 391.602L425.227 385.302C422.605 383.62 420.696 381.666 419.499 379.441C418.302 377.215 417.856 374.798 418.161 372.19C418.456 369.597 419.495 366.911 421.279 364.13L426.203 356.454L430.827 359.42ZM462.973 375.398L459.853 380.261L425.194 358.027L428.313 353.164L462.973 375.398Z" fill="#3C3C3F"/>
</g>
<defs>
<clipPath id="clip0_2_138">
<rect width="512" height="512" fill="white"/>
</clipPath>
</defs>
</svg>
