<svg width="512" height="512" viewBox="0 0 512 512" fill="none" xmlns="http://www.w3.org/2000/svg">
<g clip-path="url(#clip0_2_2)">
<path d="M204.267 346.667L346.667 256L204.267 165.333V346.667ZM256 469.333C226.844 469.333 199.289 463.733 173.333 452.533C147.378 441.333 124.711 426.044 105.333 406.667C85.9556 387.289 70.6667 364.622 59.4667 338.667C48.2667 312.711 42.6667 285.156 42.6667 256C42.6667 226.489 48.2667 198.756 59.4667 172.8C70.6667 146.844 85.9556 124.267 105.333 105.067C124.711 85.8667 147.378 70.6667 173.333 59.4667C199.289 48.2667 226.844 42.6667 256 42.6667C285.511 42.6667 313.244 48.2667 339.2 59.4667C365.156 70.6667 387.733 85.8667 406.933 105.067C426.133 124.267 441.333 146.844 452.533 172.8C463.733 198.756 469.333 226.489 469.333 256C469.333 285.156 463.733 312.711 452.533 338.667C441.333 364.622 426.133 387.289 406.933 406.667C387.733 426.044 365.156 441.333 339.2 452.533C313.244 463.733 285.511 469.333 256 469.333ZM256 437.333C306.489 437.333 349.333 419.644 384.533 384.267C419.733 348.889 437.333 306.133 437.333 256C437.333 205.511 419.733 162.667 384.533 127.467C349.333 92.2667 306.489 74.6667 256 74.6667C205.867 74.6667 163.111 92.2667 127.733 127.467C92.3556 162.667 74.6667 205.511 74.6667 256C74.6667 306.133 92.3556 348.889 127.733 384.267C163.111 419.644 205.867 437.333 256 437.333Z" fill="#DDC260"/>
</g>
<defs>
<clipPath id="clip0_2_2">
<rect width="512" height="512" fill="white"/>
</clipPath>
</defs>
</svg>
